<svg xmlns="http://www.w3.org/2000/svg" width="30" height="30" fill="none" viewBox="0 0 30 30">
  <path fill="#E30606" fill-rule="evenodd" d="M12.5 4.063a5.313 5.313 0 1 0 0 10.625 5.313 5.313 0 0 0 0-10.626ZM9.062 9.375a3.437 3.437 0 1 1 6.875 0 3.437 3.437 0 0 1-6.874 0Z" clip-rule="evenodd"/>
  <path fill="#E30606" d="M4.688 21.25A2.813 2.813 0 0 1 7.5 18.437h.426c.033 0 .066.006.097.016l1.082.353c1.246.407 2.546.584 3.84.531a.379.379 0 0 0 .35-.304c.091-.425.22-.837.38-1.232a.275.275 0 0 0-.279-.374 9.06 9.06 0 0 1-3.709-.403l-1.082-.353a2.187 2.187 0 0 0-.679-.108H7.5a4.688 4.688 0 0 0-4.688 4.687v1.485a1.92 1.92 0 0 0 1.612 1.896c3.244.53 6.527.738 9.802.626.203-.007.313-.243.199-.411a7.49 7.49 0 0 1-.635-1.128.525.525 0 0 0-.484-.313c-2.868.047-5.74-.16-8.58-.624a.046.046 0 0 1-.038-.046V21.25Z"/>
  <path fill="#E30606" fill-rule="evenodd" d="M15 20.625a5.6 5.6 0 0 0 1.04 3.26c.365.512.813.96 1.326 1.325A5.625 5.625 0 1 0 15 20.625Zm5.625 3.75c-.695 0-1.347-.19-1.905-.52l5.136-5.135a3.75 3.75 0 0 1-3.23 5.655Zm-3.23-1.845 5.135-5.136a3.75 3.75 0 0 0-5.136 5.136Z" clip-rule="evenodd"/>
</svg>
