<svg xmlns="http://www.w3.org/2000/svg" width="30" height="30" fill="none" viewBox="0 0 30 30">
  <path fill="#00953C" fill-rule="evenodd" d="M7.375 9.313a5.313 5.313 0 1 1 10.625 0 5.313 5.313 0 0 1-10.625 0Zm5.313-3.438a3.437 3.437 0 1 0 0 6.875 3.437 3.437 0 0 0 0-6.875Zm-5 12.5a2.813 2.813 0 0 0-2.813 2.813v1.485c0 .023.016.042.039.045a48.217 48.217 0 0 0 15.547 0 .046.046 0 0 0 .039-.045v-1.485a2.813 2.813 0 0 0-2.813-2.813h-.426a.313.313 0 0 0-.097.015l-1.082.354c-2.206.72-4.584.72-6.79 0l-1.081-.354a.313.313 0 0 0-.097-.015h-.427ZM3 21.188A4.688 4.688 0 0 1 7.688 16.5h.426c.23 0 .46.037.679.108l1.081.353a9.062 9.062 0 0 0 5.627 0l1.081-.353c.22-.072.449-.108.68-.108h.425a4.688 4.688 0 0 1 4.688 4.688v1.485c0 .941-.682 1.744-1.612 1.896a50.121 50.121 0 0 1-16.151 0A1.921 1.921 0 0 1 3 22.673v-1.485Z" clip-rule="evenodd"/>
</svg>
