<svg xmlns="http://www.w3.org/2000/svg" width="32" height="32" fill="none" viewBox="0 0 32 32">
  <path fill="#00953B" fill-rule="evenodd" d="M19.956 8.026c-.226-1.812-2.368-2.657-3.771-1.488l-5.788 4.823a.333.333 0 0 1-.213.077h-4.85A2.333 2.333 0 0 0 3 13.772v5.333a2.333 2.333 0 0 0 2.333 2.334h4.85c.079 0 .154.027.214.077l5.788 4.823c1.403 1.17 3.545.324 3.771-1.488a67.82 67.82 0 0 0 0-16.825Zm-2.49.049a.31.31 0 0 1 .506.2 65.82 65.82 0 0 1 0 16.328.31.31 0 0 1-.507.2l-5.787-4.824c-.42-.35-.948-.54-1.494-.54h-4.85A.333.333 0 0 1 5 19.105v-5.333c0-.184.15-.334.333-.334h4.85c.547 0 1.075-.19 1.495-.54l5.787-4.823Z" clip-rule="evenodd"/>
  <path fill="#00953B" d="M24.043 11.035a1 1 0 0 0-1.877.69c.54 1.468.834 3.055.834 4.714a13.667 13.667 0 0 1-.834 4.713 1 1 0 1 0 1.877.69A15.577 15.577 0 0 0 25 16.439c0-1.898-.338-3.718-.957-5.404Z"/>
</svg>
