<svg xmlns="http://www.w3.org/2000/svg" width="32" height="32" fill="none" viewBox="0 0 32 32">
  <path fill="#E30606" fill-rule="evenodd" d="M16.185 6.1c1.403-1.17 3.545-.325 3.771 1.488a67.82 67.82 0 0 1 0 16.824c-.226 1.813-2.368 2.658-3.771 1.488l-5.788-4.823a.333.333 0 0 0-.213-.077h-4.85A2.333 2.333 0 0 1 3 18.667v-5.334A2.333 2.333 0 0 1 5.333 11h4.85a.333.333 0 0 0 .214-.077L16.185 6.1Zm1.787 1.736a.31.31 0 0 0-.507-.2l-5.787 4.823c-.42.35-.948.541-1.494.541h-4.85a.333.333 0 0 0-.334.333v5.334c0 .184.15.333.333.333h4.85c.547 0 1.075.191 1.495.54l5.787 4.824a.31.31 0 0 0 .507-.2 65.82 65.82 0 0 0 0-16.328Z" clip-rule="evenodd"/>
  <path fill="#E30606" d="M22.936 12.936a1 1 0 0 1 1.414 0l1.65 1.65 1.65-1.65a1 1 0 0 1 1.414 1.414L27.414 16l1.65 1.65a1 1 0 1 1-1.414 1.414L26 17.414l-1.65 1.65a1 1 0 1 1-1.414-1.414l1.65-1.65-1.65-1.65a1 1 0 0 1 0-1.414Z"/>
</svg>
